<svg viewBox="0 0 200 200" xmlns="http://www.w3.org/2000/svg">
  <!-- Forme rectangulaire du comté -->
  <rect x="30" y="60" width="140" height="80" rx="8" ry="8" fill="#FFD700" stroke="#DAA520" stroke-width="3"/>
  
  <!-- Croûte dorée -->
  <rect x="30" y="60" width="140" height="80" rx="8" ry="8" fill="none" stroke="#B8860B" stroke-width="6"/>
  
  <!-- Trous caractéristiques -->
  <ellipse cx="70" cy="90" rx="4" ry="3" fill="#F0E68C"/>
  <ellipse cx="130" cy="85" rx="3" ry="4" fill="#F0E68C"/>
  <ellipse cx="100" cy="110" rx="5" ry="3" fill="#F0E68C"/>
  <ellipse cx="60" cy="120" rx="3" ry="2" fill="#F0E68C"/>
  <ellipse cx="140" cy="115" rx="4" ry="3" fill="#F0E68C"/>
  <ellipse cx="110" cy="80" rx="2" ry="3" fill="#F0E68C"/>
  
  <!-- Texture de la pâte -->
  <path d="M 40 80 Q 100 75 160 80" fill="none" stroke="#F5DEB3" stroke-width="1" opacity="0.7"/>
  <path d="M 40 100 Q 100 95 160 100" fill="none" stroke="#F5DEB3" stroke-width="1" opacity="0.7"/>
  <path d="M 40 120 Q 100 115 160 120" fill="none" stroke="#F5DEB3" stroke-width="1" opacity="0.7"/>
  
  <!-- Marques de vieillissement -->
  <rect x="35" y="65" width="2" height="70" fill="#B8860B" opacity="0.5"/>
  <rect x="163" y="65" width="2" height="70" fill="#B8860B" opacity="0.5"/>
  
  <!-- Ombrage -->
  <rect x="30" y="60" width="140" height="80" rx="8" ry="8" fill="url(#yellowGradient)" opacity="0.3"/>
  
  <defs>
    <linearGradient id="yellowGradient" x1="0%" y1="0%" x2="100%" y2="100%">
      <stop offset="0%" stop-color="#FFF" stop-opacity="0"/>
      <stop offset="100%" stop-color="#B8860B" stop-opacity="0.2"/>
    </linearGradient>
  </defs>
</svg> 