<svg viewBox="0 0 200 200" xmlns="http://www.w3.org/2000/svg">
  <!-- Forme triangulaire du roquefort -->
  <path d="M 100 30 L 170 150 L 30 150 Z" fill="#F5F5DC" stroke="#E6D7B8" stroke-width="3"/>
  
  <!-- Veines bleues caractéristiques -->
  <path d="M 80 60 Q 100 80 120 100 Q 110 120 90 140" fill="none" stroke="#4169E1" stroke-width="3"/>
  <path d="M 60 90 Q 80 100 100 110 Q 120 120 140 130" fill="none" stroke="#4169E1" stroke-width="2"/>
  <path d="M 70 120 Q 90 110 110 120 Q 130 130 150 140" fill="none" stroke="#4169E1" stroke-width="2"/>
  <path d="M 50 110 Q 70 120 90 130" fill="none" stroke="#4169E1" stroke-width="1"/>
  <path d="M 110 70 Q 130 80 150 90" fill="none" stroke="#4169E1" stroke-width="1"/>
  
  <!-- Petites veines secondaires -->
  <circle cx="85" cy="85" r="2" fill="#4169E1"/>
  <circle cx="115" cy="95" r="1.5" fill="#4169E1"/>
  <circle cx="95" cy="115" r="1" fill="#4169E1"/>
  <circle cx="125" cy="105" r="1" fill="#4169E1"/>
  
  <!-- Texture de surface -->
  <path d="M 60 80 Q 100 75 140 80" fill="none" stroke="#E8E8E8" stroke-width="1" opacity="0.5"/>
  <path d="M 70 110 Q 100 105 130 110" fill="none" stroke="#E8E8E8" stroke-width="1" opacity="0.5"/>
  
  <!-- Ombrage -->
  <path d="M 100 30 L 170 150 L 30 150 Z" fill="url(#blueGradient)" opacity="0.2"/>
  
  <defs>
    <linearGradient id="blueGradient" x1="0%" y1="0%" x2="100%" y2="100%">
      <stop offset="0%" stop-color="#FFF" stop-opacity="0"/>
      <stop offset="100%" stop-color="#4169E1" stop-opacity="0.1"/>
    </linearGradient>
  </defs>
</svg> 